<svg xmlns="http://www.w3.org/2000/svg" height="126" viewBox="0 0 126 126" width="126">
  <defs>
    <polygon id="path-1" points="0 0.180940439 54.9874608 0.180940439 54.9874608 65.830721 0 65.830721"/>
  </defs>
  <g stroke="none" stroke-width="1" fill="none" fill-rule="evenodd">
    <rect x="13" y="13" width="100" height="100" rx="20" fill="#D82C20" />
    <circle cx="63" cy="63" r="44" fill="#fff"/>
    <path
      d="M53.2777429,38.7230596 L28.3926019,53.119674 C28.0100313,53.3408652 27.5337931,53.3419937 27.1523511,53.119674 L11.0076489,43.7946583 L10.9884639,43.8059436 L2.28978056,38.7817429 C1.90833856,38.5605517 1.67134796,38.1486395 1.67134796,37.7073856 L1.67134796,28.534721 C1.67134796,28.4523386 1.72100313,28.4117116 1.75260188,28.3947837 C1.77855799,28.3778558 1.83611285,28.3552853 1.90833856,28.3925266 L9.88137931,33.0059436 L9.86783699,33.0127147 L26.5948589,42.6762884 C27.3216301,43.0949718 28.2233229,43.0949718 28.9489655,42.6762884 L44.5361755,33.6717743 L53.2540439,38.7072602 C53.2619436,38.7129028 53.2698433,38.7185455 53.2777429,38.7230596 Z M2.2277116,15.8579812 L27.1523511,1.45910972 C27.5337931,1.2379185 28.0100313,1.2379185 28.3926019,1.45910972 L53.2540439,15.8218683 C53.2687147,15.829768 53.2822571,15.8399248 53.2969279,15.8478245 L28.3926019,30.2557241 C28.0100313,30.4769154 27.5337931,30.4780439 27.1523511,30.2557241 L11.0076489,20.9295799 L2.2277116,15.8579812 Z M54.9231348,16.4177304 C54.7877116,15.7699561 54.3949843,15.1944075 53.8104075,14.8569781 L28.9489655,0.495347962 C28.2233229,0.0755360502 27.319373,0.0766645768 26.5948589,0.495347962 L0,15.8579812 L9.89492163,21.5739687 L1.73341693,26.2878245 C1.00890282,26.7076364 0.556363636,27.4885768 0.556363636,28.3259436 L0.556363636,28.3801129 L0.556363636,28.534721 L0.556363636,37.7073856 C0.556363636,38.5447524 1.00777429,39.3268213 1.73341693,39.7455047 L9.87573668,44.4492038 L0,50.153906 L26.5948589,65.5154107 C26.9582445,65.7253166 27.3656426,65.8313981 27.7719122,65.8313981 C28.1793103,65.8313981 28.5867085,65.7253166 28.9489655,65.5165392 L53.8104075,51.1549091 C54.5360502,50.7362257 54.9874608,49.9552853 54.9874608,49.11679 L54.9874608,39.990395 L54.9874608,39.7816176 L54.9874608,39.6337806 C54.9874608,39.5062571 54.9592476,39.3866332 54.9186207,39.272652 C54.7764263,38.6384201 54.3848276,38.0764138 53.8104075,37.7434984 L45.6285893,33.0161003 L53.8104075,28.2898307 C54.5371787,27.8700188 54.9874608,27.0890784 54.9874608,26.2517116 L54.9874608,17.1027461 L54.9874608,16.8950972 L54.9874608,16.7698307 C54.9874608,16.6468213 54.9603762,16.5294545 54.9231348,16.4177304 Z"
      fill="#D82C20"
      transform="translate(35 30)"
    />
  </g>
</svg>
